<?xml version="1.0" standalone="no"?>
<!DOCTYPE svg PUBLIC "-//W3C//DTD SVG 20010904//EN"
 "http://www.w3.org/TR/2001/REC-SVG-20010904/DTD/svg10.dtd">
<svg version="1.0" xmlns="http://www.w3.org/2000/svg"
 width="571.000000pt" height="192.000000pt" viewBox="0 0 571.000000 192.000000"
 preserveAspectRatio="xMidYMid meet">

<g transform="translate(0.000000,192.000000) scale(0.100000,-0.100000)"
fill="#ffffff" stroke="none">
<path d="M374 1520 c74 -39 149 -97 272 -211 150 -141 218 -178 327 -179 l37
0 0 148 c0 133 -2 151 -23 187 -14 26 -37 48 -67 63 -43 21 -54 22 -323 22
l-279 0 56 -30z"/>
<path d="M3175 1528 c-3 -13 -31 -182 -63 -375 l-59 -353 258 0 c289 0 261 -8
274 80 4 25 9 53 11 63 5 16 -6 17 -136 17 l-142 0 6 48 c13 87 2 81 149 84
l132 3 12 65 c20 109 31 100 -118 100 l-131 0 7 53 c4 28 9 55 12 60 2 4 66 7
143 7 l138 0 11 63 c21 119 49 107 -244 107 l-255 0 -5 -22z"/>
<path d="M3986 1539 c-70 -10 -160 -50 -199 -87 -67 -64 -92 -161 -59 -234 26
-59 76 -89 207 -124 55 -14 110 -32 123 -40 71 -46 -44 -117 -131 -80 -24 10
-38 23 -43 41 -4 14 -12 24 -18 22 -6 -2 -57 -12 -113 -22 -58 -10 -103 -23
-103 -29 1 -27 40 -94 73 -123 52 -46 98 -58 217 -58 84 0 119 5 174 24 168
57 257 237 169 341 -34 41 -79 63 -192 94 -106 29 -141 48 -141 76 0 26 29 40
84 40 44 0 76 -18 87 -47 4 -10 206 11 217 22 13 12 -24 93 -57 126 -54 54
-171 78 -295 58z"/>
<path d="M1219 1203 c-105 -186 -200 -353 -211 -370 l-20 -33 109 0 108 0 38
65 38 65 139 0 139 0 13 -62 14 -63 108 -3 c108 -3 108 -3 104 20 -3 13 -40
179 -84 370 l-79 348 -112 0 -112 0 -192 -337z m306 -121 c-1 -2 -38 -2 -82 0
l-79 3 60 115 61 115 21 -115 c12 -63 21 -116 19 -118z"/>
<path d="M1946 1513 c-14 -65 -116 -680 -116 -695 0 -16 11 -18 100 -18 115 0
100 -17 125 140 26 161 23 152 58 148 32 -3 32 -3 73 -143 l41 -140 107 -3
c81 -2 106 0 106 10 0 7 -21 76 -45 153 -25 76 -45 141 -45 142 0 2 7 3 16 3
52 0 104 66 123 158 23 112 8 181 -50 224 -57 43 -91 48 -295 48 l-192 0 -6
-27z m299 -135 c28 -15 35 -28 35 -64 0 -61 -60 -104 -148 -104 -31 0 -33 2
-28 28 3 15 11 58 17 95 l11 69 47 -7 c25 -4 55 -12 66 -17z"/>
<path d="M2557 1533 c-3 -5 -8 -30 -11 -58 -4 -27 -10 -60 -13 -72 -5 -23 -3
-23 82 -23 l87 0 -6 -27 c-3 -16 -24 -136 -46 -268 -22 -132 -43 -250 -45
-262 -5 -23 -4 -23 99 -23 l104 0 12 73 c7 39 29 169 49 287 l37 215 86 3 86
3 11 63 c6 34 11 70 11 79 0 15 -25 17 -269 17 -149 0 -272 -3 -274 -7z"/>
<path d="M4446 1513 c-6 -28 -116 -702 -116 -709 0 -2 44 -4 99 -4 l98 0 17
108 c25 157 13 142 120 142 127 0 186 19 245 78 55 56 84 130 85 217 0 81 -23
128 -83 163 -45 27 -49 27 -253 30 l-206 3 -6 -28z m327 -154 c21 -26 17 -76
-9 -116 -15 -25 -70 -43 -126 -43 -44 0 -46 6 -26 122 l11 70 66 -5 c52 -4 69
-10 84 -28z"/>
<path d="M140 1460 c-12 -8 -10 -10 11 -10 90 0 209 -70 349 -204 126 -121
175 -160 241 -190 65 -30 160 -46 214 -37 40 7 40 7 -21 14 -129 14 -205 59
-356 211 -110 110 -200 176 -276 200 -64 20 -144 28 -162 16z"/>
<path d="M116 1336 c110 -25 187 -77 371 -248 61 -57 134 -116 161 -131 69
-37 154 -57 242 -56 l75 1 -89 19 c-139 28 -200 64 -339 196 -183 175 -266
221 -407 229 l-75 4 61 -14z"/>
<path d="M0 1087 c0 -141 2 -157 23 -197 16 -30 37 -51 67 -67 42 -23 49 -23
349 -23 l306 0 -54 25 c-63 30 -103 60 -236 180 -131 118 -168 146 -240 182
-59 30 -142 53 -190 53 l-25 0 0 -153z"/>
<path d="M327 566 c-4 -10 2 -13 19 -12 13 0 24 7 24 14 0 17 -37 15 -43 -2z"/>
<path d="M4114 569 c-3 -5 6 -9 20 -9 32 0 41 15 10 16 -13 1 -27 -2 -30 -7z"/>
<path d="M44 483 c-43 -97 -45 -103 -30 -103 8 0 16 7 20 15 3 8 17 15 31 15
16 0 25 -6 25 -15 0 -9 9 -15 21 -15 17 0 20 5 15 28 -3 15 -8 51 -11 80 -6
42 -10 52 -26 52 -14 0 -27 -16 -45 -57z m32 -30 c-11 -11 -17 4 -9 23 7 18 8
18 11 1 2 -10 1 -21 -2 -24z"/>
<path d="M171 514 c-14 -17 -21 -41 -21 -68 0 -47 13 -66 45 -66 12 0 26 5 33
12 9 9 12 9 12 -1 0 -7 5 -9 10 -6 6 3 10 22 10 41 0 30 -3 34 -26 34 -20 0
-25 -4 -22 -22 3 -24 -17 -36 -25 -14 -9 23 12 86 28 86 8 0 15 -4 15 -10 0
-5 9 -10 20 -10 22 0 26 20 8 38 -21 21 -65 14 -87 -14z"/>
<path d="M296 523 c-2 -10 -7 -38 -11 -63 -4 -25 -9 -53 -11 -62 -5 -16 2 -18
45 -18 44 0 51 3 51 20 0 15 -7 20 -25 20 -16 0 -25 6 -25 15 0 8 9 15 20 15
11 0 20 7 20 15 0 8 -7 15 -15 15 -8 0 -15 7 -15 15 0 10 10 15 30 15 20 0 30
5 30 15 0 23 -87 21 -94 -2z"/>
<path d="M401 464 c-7 -42 -10 -78 -8 -81 11 -10 27 8 27 30 0 46 16 49 33 6
27 -68 43 -47 62 78 5 35 3 43 -9 43 -10 0 -16 -9 -16 -22 0 -13 -4 -29 -9
-37 -6 -10 -12 -4 -21 23 -7 23 -18 36 -29 36 -15 0 -21 -14 -30 -76z"/>
<path d="M552 520 c-43 -46 -32 -140 16 -140 24 0 62 28 62 46 0 18 -9 18 -32
-3 -27 -24 -42 -4 -34 42 7 35 36 60 44 37 7 -22 34 -13 30 11 -4 32 -59 36
-86 7z"/>
<path d="M666 517 c-3 -13 -8 -49 -12 -80 -6 -48 -4 -57 9 -57 10 0 18 12 22
33 3 17 9 53 14 80 7 41 6 47 -9 47 -10 0 -20 -10 -24 -23z"/>
<path d="M736 473 c-40 -95 -40 -93 -23 -93 8 0 17 7 21 15 3 8 15 15 26 15
11 0 23 -7 26 -15 4 -8 12 -15 20 -15 16 0 17 26 8 108 -6 44 -10 52 -28 52
-16 0 -27 -15 -50 -67z m40 -20 c-11 -11 -17 4 -9 23 7 18 8 18 11 1 2 -10 1
-21 -2 -24z"/>
<path d="M911 471 c-16 -98 -17 -94 30 -88 53 7 79 33 86 84 7 50 -14 73 -66
73 l-38 0 -12 -69z m77 3 c2 -20 -4 -36 -18 -49 -27 -24 -31 -17 -24 39 5 36
11 46 23 44 10 -2 17 -15 19 -34z"/>
<path d="M1045 483 c-3 -32 -9 -68 -12 -80 -5 -22 -2 -23 46 -23 44 0 51 3 51
20 0 16 -7 20 -31 20 -35 0 -36 23 -1 28 28 4 29 32 1 32 -33 0 -16 25 19 28
20 2 32 9 32 18 0 10 -13 14 -49 14 l-49 0 -7 -57z"/>
<path d="M1220 525 c0 -8 7 -15 16 -15 14 0 15 -8 10 -47 -4 -27 -9 -56 -12
-65 -4 -13 0 -18 14 -18 15 0 21 9 26 38 15 86 17 92 37 92 10 0 19 7 19 15 0
12 -13 15 -55 15 -42 0 -55 -3 -55 -15z"/>
<path d="M1331 464 c-7 -42 -10 -78 -7 -81 12 -12 36 8 36 31 0 39 18 40 26 1
4 -25 11 -35 25 -35 17 0 18 5 13 38 -4 28 -2 41 10 51 38 32 11 71 -50 71
l-41 0 -12 -76z m77 34 c-7 -19 -38 -22 -38 -4 0 10 9 16 21 16 12 0 19 -5 17
-12z"/>
<path d="M1484 483 c-44 -99 -45 -103 -28 -103 8 0 17 7 20 15 4 8 17 15 30
15 15 0 24 -6 24 -15 0 -8 9 -15 20 -15 18 0 20 5 16 33 -3 17 -8 53 -11 80
-5 38 -10 47 -26 47 -14 0 -26 -16 -45 -57z m36 -13 c0 -11 -4 -20 -9 -20 -5
0 -7 9 -4 20 3 11 7 20 9 20 2 0 4 -9 4 -20z"/>
<path d="M1606 523 c-2 -10 -7 -38 -11 -63 -4 -25 -9 -53 -11 -62 -4 -12 0
-18 10 -18 9 0 18 15 24 43 l10 42 17 -42 c21 -51 42 -55 50 -10 3 17 9 53 14
80 7 37 6 47 -5 47 -8 0 -16 -12 -20 -27 -3 -16 -7 -32 -8 -38 -2 -5 -10 7
-19 28 -17 39 -42 49 -51 20z"/>
<path d="M1747 522 c-27 -30 -22 -62 13 -75 17 -6 30 -15 30 -19 0 -14 -20
-19 -39 -9 -14 8 -22 7 -31 -4 -10 -12 -7 -17 13 -26 37 -17 72 -4 87 31 14
33 4 54 -31 65 -29 9 -23 26 9 23 19 -2 27 2 27 12 0 23 -57 25 -78 2z"/>
<path d="M1857 518 c-3 -13 -9 -49 -12 -80 -6 -50 -5 -58 9 -58 10 0 19 11 22
29 5 22 13 31 34 36 37 8 52 27 48 62 -3 26 -7 28 -49 31 -42 3 -47 0 -52 -20z
m61 -25 c-5 -25 -28 -28 -28 -4 0 12 6 21 16 21 9 0 14 -7 12 -17z"/>
<path d="M1991 519 c-45 -48 -30 -139 22 -139 50 0 94 90 68 139 -15 28 -64
28 -90 0z m59 -42 c0 -38 -22 -73 -38 -63 -24 15 -4 96 23 96 10 0 15 -10 15
-33z"/>
<path d="M2117 533 c-2 -4 -8 -30 -11 -58 -4 -27 -10 -60 -13 -72 -4 -18 -1
-23 16 -23 14 0 21 6 21 19 0 28 11 52 21 45 5 -3 9 -18 9 -35 0 -23 4 -29 21
-29 19 0 21 4 16 37 -5 26 -2 42 9 54 9 10 14 28 12 41 -3 20 -9 23 -50 26
-25 2 -48 -1 -51 -5z m63 -38 c0 -8 -9 -15 -20 -15 -13 0 -18 5 -14 15 4 8 12
15 20 15 8 0 14 -7 14 -15z"/>
<path d="M2237 533 c-13 -12 -7 -23 11 -23 17 0 18 -5 10 -61 -10 -64 -8 -75
15 -66 9 3 17 28 21 66 6 51 10 61 26 61 11 0 20 7 20 15 0 11 -12 15 -48 15
-27 0 -52 -3 -55 -7z"/>
<path d="M2357 533 c-3 -5 -8 -30 -11 -58 -4 -27 -10 -60 -13 -72 -5 -22 -2
-23 46 -23 44 0 51 3 51 20 0 16 -7 20 -30 20 -22 0 -28 4 -24 15 4 8 15 15
25 15 10 0 19 7 19 15 0 8 -9 15 -20 15 -13 0 -18 5 -14 15 4 9 19 15 35 15
19 0 29 5 29 15 0 11 -12 15 -44 15 -25 0 -47 -3 -49 -7z"/>
<path d="M2521 477 c-17 -100 -17 -100 29 -94 51 7 67 20 81 68 17 55 -6 89
-60 89 l-39 0 -11 -63z m77 2 c3 -26 -31 -79 -43 -67 -4 3 -3 27 0 53 6 35 11
45 24 43 9 -2 17 -15 19 -29z"/>
<path d="M2671 519 c-45 -48 -30 -139 22 -139 50 0 94 90 68 139 -15 28 -64
28 -90 0z m59 -42 c0 -38 -22 -73 -38 -63 -24 15 -4 96 23 96 10 0 15 -10 15
-33z"/>
<path d="M2845 483 c-3 -32 -9 -68 -12 -80 -5 -22 -2 -23 46 -23 44 0 51 3 51
20 0 16 -7 20 -31 20 -35 0 -36 23 -1 28 28 4 29 32 1 32 -33 0 -16 25 19 28
20 2 32 9 32 18 0 10 -13 14 -49 14 l-49 0 -7 -57z"/>
<path d="M2977 522 c-27 -30 -22 -62 13 -75 17 -6 30 -15 30 -19 0 -14 -20
-19 -39 -9 -14 8 -22 7 -31 -4 -9 -11 -7 -16 9 -24 30 -17 59 -13 81 9 29 29
25 58 -10 78 -37 21 -38 34 -2 30 19 -2 27 2 27 12 0 23 -57 25 -78 2z"/>
<path d="M3080 525 c0 -8 7 -15 16 -15 13 0 15 -9 9 -65 -6 -55 -5 -65 8 -65
15 0 19 10 33 93 5 27 11 37 25 37 11 0 19 7 19 15 0 12 -13 15 -55 15 -42 0
-55 -3 -55 -15z"/>
<path d="M3195 468 c-16 -39 -31 -75 -33 -80 -2 -4 3 -8 11 -8 8 0 17 7 21 15
3 8 17 15 31 15 16 0 25 -6 25 -15 0 -8 7 -15 15 -15 17 0 19 24 9 108 -6 44
-10 52 -28 52 -17 0 -27 -15 -51 -72z m41 -15 c-11 -11 -17 4 -9 23 7 18 8 18
11 1 2 -10 1 -21 -2 -24z"/>
<path d="M3311 471 c-16 -98 -17 -94 30 -88 53 7 79 33 86 84 7 50 -14 73 -66
73 l-38 0 -12 -69z m77 3 c2 -20 -4 -36 -18 -49 -27 -24 -31 -17 -24 39 5 36
11 46 23 44 10 -2 17 -15 19 -34z"/>
<path d="M3460 513 c-25 -32 -25 -110 1 -126 25 -16 67 0 84 33 18 35 20 91 3
108 -21 21 -65 14 -88 -15z m60 -36 c0 -39 -22 -73 -39 -62 -9 5 -11 19 -6 44
8 44 12 51 31 51 9 0 14 -11 14 -33z"/>
<path d="M3646 523 c-2 -10 -7 -38 -11 -63 -4 -25 -9 -53 -11 -62 -10 -36 83
-18 113 21 16 21 17 93 1 109 -19 19 -86 15 -92 -5z m67 -26 c9 -23 -5 -67
-24 -78 -17 -8 -19 -6 -19 18 0 42 11 73 25 73 7 0 15 -6 18 -13z"/>
<path d="M3776 517 c-3 -13 -8 -49 -12 -81 l-7 -57 49 3 c37 2 50 7 52 21 3
13 -3 17 -27 17 -21 0 -31 5 -31 15 0 8 9 15 20 15 11 0 20 7 20 15 0 8 -7 15
-15 15 -8 0 -15 7 -15 15 0 10 10 15 29 15 16 0 31 6 35 15 4 12 -4 15 -43 15
-43 0 -50 -3 -55 -23z"/>
<path d="M3962 528 c-22 -22 -14 -67 13 -80 14 -6 25 -15 25 -19 0 -16 -21
-20 -36 -8 -21 18 -42 -4 -24 -26 30 -36 100 -4 100 46 0 24 -6 32 -30 40 -32
12 -31 34 1 26 19 -5 44 15 32 26 -11 12 -68 8 -81 -5z"/>
<path d="M4081 470 c-17 -39 -31 -75 -31 -80 0 -16 20 -12 26 5 4 8 17 15 30
15 15 0 24 -6 24 -15 0 -9 9 -15 21 -15 19 0 20 4 14 58 -10 90 -14 102 -34
102 -13 0 -27 -20 -50 -70z m49 -11 c0 -5 -7 -9 -15 -9 -9 0 -12 6 -9 15 6 15
24 11 24 -6z"/>
<path d="M4215 520 c-25 -28 -32 -102 -10 -123 52 -52 129 35 102 116 -7 22
-15 27 -41 27 -20 0 -40 -8 -51 -20z m57 -50 c-5 -61 -42 -84 -42 -26 0 47 9
68 29 64 12 -3 15 -13 13 -38z"/>
<path d="M4391 477 c-15 -84 -14 -97 4 -97 9 0 18 12 21 29 5 22 13 31 34 36
37 8 52 27 48 62 -3 26 -7 28 -49 31 l-47 3 -11 -64z m67 16 c-5 -25 -28 -28
-28 -4 0 12 6 21 16 21 9 0 14 -7 12 -17z"/>
<path d="M4524 483 c-44 -99 -45 -103 -28 -103 8 0 17 7 20 15 4 8 17 15 30
15 15 0 24 -6 24 -15 0 -8 9 -15 20 -15 18 0 20 5 16 33 -3 17 -8 53 -11 80
-5 38 -10 47 -26 47 -14 0 -26 -16 -45 -57z m32 -30 c-11 -11 -17 4 -9 23 7
18 8 18 11 1 2 -10 1 -21 -2 -24z"/>
<path d="M4646 523 c-14 -51 -18 -114 -6 -128 15 -19 50 -19 74 -2 24 18 51
147 30 147 -14 0 -19 -14 -29 -77 -6 -40 -28 -63 -40 -42 -4 5 -3 34 0 64 6
46 5 55 -8 55 -9 0 -18 -8 -21 -17z"/>
<path d="M4776 523 c-2 -10 -7 -38 -11 -63 -4 -25 -9 -53 -12 -63 -4 -16 1
-18 44 -15 36 2 49 7 51 21 3 13 -3 17 -23 17 l-27 0 7 60 c6 50 4 60 -8 60
-9 0 -18 -8 -21 -17z"/>
<path d="M4891 521 c-46 -46 -31 -141 22 -141 50 0 94 90 68 139 -15 27 -64
28 -90 2z m56 -52 c-6 -45 -19 -65 -36 -55 -26 16 -4 96 26 96 13 0 15 -8 10
-41z"/>
</g>
</svg>
